<svg xmlns="http://www.w3.org/2000/svg" xmlns:xlink="http://www.w3.org/1999/xlink" xmlns:lucid="lucid" width="3621.73" height="1006.93"><g transform="translate(-699.9999999999985 -180.0000000000002)" lucid:page-tab-id="0_0"><path d="M720 206c0-3.3 2.7-6 6-6h151c3.32 0 6 2.7 6 6v49.98c0 3.32-2.68 6-6 6H726c-3.3 0-6-2.68-6-6z" stroke="#5e5e5e" fill="#fff"/><use xlink:href="#a" transform="matrix(1,0,0,1,719.9999999999985,200.0000000000002) translate(60.54203703703704 33.59722222222222)"/><path d="M720 1110.95c0-3.32 2.7-6 6-6h151c3.32 0 6 2.68 6 6v49.98c0 3.3-2.68 6-6 6H726c-3.3 0-6-2.7-6-6z" stroke="#5e5e5e" fill="#fff"/><use xlink:href="#a" transform="matrix(1,0,0,1,719.9999999999985,1104.9464970724816) translate(60.54203703703704 33.59722222222222)"/><path d="M801.5 262.98v5m0 5v10.03m0 5v10.02m0 5v10.02m0 5v10.02m0 5v10m0 5.02v10m0 5.02v10m0 5v10.03m0 5v10m0 5.02v10m0 5.02v10m0 5v10.02m0 5v10m0 5.02v10m0 5.02v10m0 5v10.02m0 5v10.02m0 5v10.02m0 5v10.02m0 5v10m0 5.02v10m0 5.02v10m0 5v10.02m0 5v10.02m0 5v10.02m0 5v10.02m0 5v10m0 5.02v10m0 5.02v10m0 5v10.02m0 5v10.02m0 5v10.02m0 5v10.02m0 5v10m0 5.02v10m0 5.02v10m0 5v10.03m0 5v10m0 5.02v10m0 5.02v10m0 5v10.02m0 5v10m0 5.02v10m0 5v10.03m0 5v10m0 5.02v10m0 5.02v10m0 5v10m0 5.02v10m0 5.02v10m0 5v10.03m0 5v10m0 5.02v10m0 5v10.02m0 5v10.02m0 5v5" stroke="#5e5e5e" fill="none"/><path d="M802 263h-1v-.52h1zM802 1104.45h-1v-.52h1z" fill="#5e5e5e"/><path d="M1060 206c0-3.3 2.7-6 6-6h151.02c3.3 0 6 2.7 6 6v49.98c0 3.32-2.7 6-6 6h-151c-3.32 0-6-2.68-6-6z" stroke="#5e5e5e" fill="#fff"/><use xlink:href="#b" transform="matrix(1,0,0,1,1060.011222570326,200.0000000000002) translate(50.73956790123457 33.59722222222222)"/><path d="M1141.52 262.98v5m0 5v10.03m0 5v10.02m0 5v10.02m0 5v10.02m0 5v10m0 5.02v10m0 5.02v10m0 5v10.03m0 5v10m0 5.02v10m0 5.02v10m0 5v10.02m0 5v10m0 5.02v10m0 5.02v10m0 5v10.02m0 5v10.02m0 5v10.02m0 5v10.02m0 5v10m0 5.02v10m0 5.02v10m0 5v10.02m0 5v10.02m0 5v10.02m0 5v10.02m0 5v10m0 5.02v10m0 5.02v10m0 5v10.02m0 5v10.02m0 5v10.02m0 5v10.02m0 5v10m0 5.02v10m0 5.02v10m0 5v10.03m0 5v10m0 5.02v10m0 5.02v10m0 5v10.02m0 5v10m0 5.02v10m0 5v10.03m0 5v10m0 5.02v10m0 5.02v10m0 5v10m0 5.02v10m0 5.02v10m0 5v10.03m0 5v10m0 5.02v10m0 5v10.02m0 5v10.02m0 5v5" stroke="#5e5e5e" fill="none"/><path d="M1142.02 263h-1v-.52h1zM1142.02 1104.45h-1v-.52h1z" fill="#5e5e5e"/><path d="M1060 1110.95c0-3.32 2.7-6 6-6h151.02c3.3 0 6 2.68 6 6v49.98c0 3.3-2.7 6-6 6h-151c-3.32 0-6-2.7-6-6z" stroke="#5e5e5e" fill="#fff"/><use xlink:href="#b" transform="matrix(1,0,0,1,1060.011222570326,1104.9464970724816) translate(50.73956790123457 33.59722222222222)"/><path d="M1430.04 206c0-3.3 2.7-6 6-6h151c3.33 0 6 2.7 6 6v49.98c0 3.32-2.67 6-6 6h-151c-3.3 0-6-2.68-6-6z" stroke="#5e5e5e" fill="#fff"/><use xlink:href="#c" transform="matrix(1,0,0,1,1430.043412055572,200.0000000000002) translate(55.85067901234569 33.59722222222222)"/><path d="M1511.55 262.98v5m0 5v10.03m0 5v10.02m0 5v10.02m0 5v10.02m0 5v10m0 5.02v10m0 5.02v10m0 5v10.03m0 5v10m0 5.02v10m0 5.02v10m0 5v10.02m0 5v10m0 5.02v10m0 5.02v10m0 5v10.02m0 5v10.02m0 5v10.02m0 5v10.02m0 5v10m0 5.02v10m0 5.02v10m0 5v10.02m0 5v10.02m0 5v10.02m0 5v10.02m0 5v10m0 5.02v10m0 5.02v10m0 5v10.02m0 5v10.02m0 5v10.02m0 5v10.02m0 5v10m0 5.02v10m0 5.02v10m0 5v10.03m0 5v10m0 5.02v10m0 5.02v10m0 5v10.02m0 5v10m0 5.02v10m0 5v10.03m0 5v10m0 5.02v10m0 5.02v10m0 5v10m0 5.02v10m0 5.02v10m0 5v10.03m0 5v10m0 5.02v10m0 5v10.02m0 5v10.02m0 5v5" stroke="#5e5e5e" fill="none"/><path d="M1512.05 263h-1v-.52h1zM1512.05 1104.45h-1v-.52h1z" fill="#5e5e5e"/><path d="M1430.04 1110.95c0-3.32 2.7-6 6-6h151c3.33 0 6 2.68 6 6v49.98c0 3.3-2.67 6-6 6h-151c-3.3 0-6-2.7-6-6z" stroke="#5e5e5e" fill="#fff"/><use xlink:href="#c" transform="matrix(1,0,0,1,1430.043412055572,1104.9464970724816) translate(55.85067901234569 33.59722222222222)"/><path d="M1756.06 206c0-3.3 2.7-6 6-6h151c3.33 0 6 2.7 6 6v49.98c0 3.32-2.67 6-6 6h-151c-3.3 0-6-2.68-6-6z" stroke="#5e5e5e" fill="#fff"/><use xlink:href="#d" transform="matrix(1,0,0,1,1756.0629622628371,200.0000000000002) translate(27.332160493827175 33.59722222222222)"/><path d="M1756.06 1110.95c0-3.32 2.7-6 6-6h151c3.33 0 6 2.68 6 6v49.98c0 3.3-2.67 6-6 6h-151c-3.3 0-6-2.7-6-6z" stroke="#5e5e5e" fill="#fff"/><use xlink:href="#d" transform="matrix(1,0,0,1,1756.0629622628371,1104.9464970724816) translate(27.332160493827175 33.59722222222222)"/><path d="M1837.57 262.98v5m0 5v10.03m0 5v10.02m0 5v10.02m0 5v10.02m0 5v10m0 5.02v10m0 5.02v10m0 5v10.03m0 5v10m0 5.02v10m0 5.02v10m0 5v10.02m0 5v10m0 5.02v10m0 5.02v10m0 5v10.02m0 5v10.02m0 5v10.02m0 5v10.02m0 5v10m0 5.02v10m0 5.02v10m0 5v10.02m0 5v10.02m0 5v10.02m0 5v10.02m0 5v10m0 5.02v10m0 5.02v10m0 5v10.02m0 5v10.02m0 5v10.02m0 5v10.02m0 5v10m0 5.02v10m0 5.02v10m0 5v10.03m0 5v10m0 5.02v10m0 5.02v10m0 5v10.02m0 5v10m0 5.02v10m0 5v10.03m0 5v10m0 5.02v10m0 5.02v10m0 5v10m0 5.02v10m0 5.02v10m0 5v10.03m0 5v10m0 5.02v10m0 5v10.02m0 5v10.02m0 5v5" stroke="#5e5e5e" fill="none"/><path d="M1838.07 263h-1v-.52h1zM1838.07 1104.45h-1v-.52h1z" fill="#5e5e5e"/><path d="M2169.43 206c0-3.3 2.68-6 6-6h151c3.32 0 6 2.7 6 6v49.98c0 3.32-2.68 6-6 6h-151c-3.32 0-6-2.68-6-6z" stroke="#5e5e5e" fill="#fff"/><use xlink:href="#e" transform="matrix(1,0,0,1,2169.4285836297986,200.0000000000002) translate(32.196358024691364 33.59722222222222)"/><path d="M2169.43 1110.95c0-3.32 2.68-6 6-6h151c3.32 0 6 2.68 6 6v49.98c0 3.3-2.68 6-6 6h-151c-3.32 0-6-2.7-6-6z" stroke="#5e5e5e" fill="#fff"/><use xlink:href="#e" transform="matrix(1,0,0,1,2169.4285836297986,1104.9464970724816) translate(32.196358024691364 33.59722222222222)"/><path d="M2250.93 262.98v5m0 5v10.03m0 5v10.02m0 5v10.02m0 5v10.02m0 5v10m0 5.02v10m0 5.02v10m0 5v10.03m0 5v10m0 5.02v10m0 5.02v10m0 5v10.02m0 5v10m0 5.02v10m0 5.02v10m0 5v10.02m0 5v10.02m0 5v10.02m0 5v10.02m0 5v10m0 5.02v10m0 5.02v10m0 5v10.02m0 5v10.02m0 5v10.02m0 5v10.02m0 5v10m0 5.02v10m0 5.02v10m0 5v10.02m0 5v10.02m0 5v10.02m0 5v10.02m0 5v10m0 5.02v10m0 5.02v10m0 5v10.03m0 5v10m0 5.02v10m0 5.02v10m0 5v10.02m0 5v10m0 5.02v10m0 5v10.03m0 5v10m0 5.02v10m0 5.02v10m0 5v10m0 5.02v10m0 5.02v10m0 5v10.03m0 5v10m0 5.02v10m0 5v10.02m0 5v10.02m0 5v5" stroke="#5e5e5e" fill="none"/><path d="M2251.43 263h-1v-.52h1zM2251.43 1104.45h-1v-.52h1z" fill="#5e5e5e"/><path d="M2495.45 206c0-3.3 2.68-6 6-6h151c3.32 0 6 2.7 6 6v49.98c0 3.32-2.68 6-6 6h-151c-3.32 0-6-2.68-6-6z" stroke="#5e5e5e" fill="#fff"/><use xlink:href="#f" transform="matrix(1,0,0,1,2495.448133837063,200.0000000000002) translate(39.92475308641976 33.59722222222222)"/><use xlink:href="#g" transform="matrix(1,0,0,1,2495.448133837063,200.0000000000002) translate(85.7519135802469 33.59722222222222)"/><path d="M2495.45 1110.95c0-3.32 2.68-6 6-6h151c3.32 0 6 2.68 6 6v49.98c0 3.3-2.68 6-6 6h-151c-3.32 0-6-2.7-6-6z" stroke="#5e5e5e" fill="#fff"/><use xlink:href="#f" transform="matrix(1,0,0,1,2495.448133837063,1104.9464970724816) translate(39.92475308641976 33.59722222222222)"/><use xlink:href="#g" transform="matrix(1,0,0,1,2495.448133837063,1104.9464970724816) translate(85.7519135802469 33.59722222222222)"/><path d="M2576.95 262.98v5m0 5v10.03m0 5v10.02m0 5v10.02m0 5v10.02m0 5v10m0 5.02v10m0 5.02v10m0 5v10.03m0 5v10m0 5.02v10m0 5.02v10m0 5v10.02m0 5v10m0 5.02v10m0 5.02v10m0 5v10.02m0 5v10.02m0 5v10.02m0 5v10.02m0 5v10m0 5.02v10m0 5.02v10m0 5v10.02m0 5v10.02m0 5v10.02m0 5v10.02m0 5v10m0 5.02v10m0 5.02v10m0 5v10.02m0 5v10.02m0 5v10.02m0 5v10.02m0 5v10m0 5.02v10m0 5.02v10m0 5v10.03m0 5v10m0 5.02v10m0 5.02v10m0 5v10.02m0 5v10m0 5.02v10m0 5v10.03m0 5v10m0 5.02v10m0 5.02v10m0 5v10m0 5.02v10m0 5.02v10m0 5v10.03m0 5v10m0 5.02v10m0 5v10.02m0 5v10.02m0 5v5" stroke="#5e5e5e" fill="none"/><path d="M2577.45 263h-1v-.52h1zM2577.45 1104.45h-1v-.52h1z" fill="#5e5e5e"/><path d="M2821.47 206c0-3.3 2.68-6 6-6h151c3.32 0 6 2.7 6 6v49.98c0 3.32-2.68 6-6 6h-151c-3.32 0-6-2.68-6-6z" stroke="#5e5e5e" fill="#fff"/><use xlink:href="#h" transform="matrix(1,0,0,1,2821.467684044328,200.0000000000002) translate(60.29512345679013 33.59722222222222)"/><path d="M2902.97 262.98v5m0 5v10.03m0 5v10.02m0 5v10.02m0 5v10.02m0 5v10m0 5.02v10m0 5.02v10m0 5v10.03m0 5v10m0 5.02v10m0 5.02v10m0 5v10.02m0 5v10m0 5.02v10m0 5.02v10m0 5v10.02m0 5v10.02m0 5v10.02m0 5v10.02m0 5v10m0 5.02v10m0 5.02v10m0 5v10.02m0 5v10.02m0 5v10.02m0 5v10.02m0 5v10m0 5.02v10m0 5.02v10m0 5v10.02m0 5v10.02m0 5v10.02m0 5v10.02m0 5v10m0 5.02v10m0 5.02v10m0 5v10.03m0 5v10m0 5.02v10m0 5.02v10m0 5v10.02m0 5v10m0 5.02v10m0 5v10.03m0 5v10m0 5.02v10m0 5.02v10m0 5v10m0 5.02v10m0 5.02v10m0 5v10.03m0 5v10m0 5.02v10m0 5v10.02m0 5v10.02m0 5v5" stroke="#5e5e5e" fill="none"/><path d="M2903.47 263h-1v-.52h1zM2903.47 1104.45h-1v-.52h1z" fill="#5e5e5e"/><path d="M2821.47 1110.95c0-3.32 2.68-6 6-6h151c3.32 0 6 2.68 6 6v49.98c0 3.3-2.68 6-6 6h-151c-3.32 0-6-2.7-6-6z" stroke="#5e5e5e" fill="#fff"/><use xlink:href="#h" transform="matrix(1,0,0,1,2821.467684044328,1104.9464970724816) translate(60.29512345679013 33.59722222222222)"/><path d="M3147.5 206c0-3.3 2.67-6 6-6h151c3.3 0 6 2.7 6 6v49.98c0 3.32-2.7 6-6 6h-151c-3.33 0-6-2.68-6-6z" stroke="#5e5e5e" fill="#fff"/><use xlink:href="#i" transform="matrix(1,0,0,1,3147.4872342515937,200.0000000000002) translate(35.15932098765433 33.59722222222222)"/><path d="M3147.5 1110.95c0-3.32 2.67-6 6-6h151c3.3 0 6 2.68 6 6v49.98c0 3.3-2.7 6-6 6h-151c-3.33 0-6-2.7-6-6z" stroke="#5e5e5e" fill="#fff"/><use xlink:href="#i" transform="matrix(1,0,0,1,3147.4872342515937,1104.9464970724816) translate(35.15932098765433 33.59722222222222)"/><path d="M3229 262.98v5m0 5v10.03m0 5v10.02m0 5v10.02m0 5v10.02m0 5v10m0 5.02v10m0 5.02v10m0 5v10.03m0 5v10m0 5.02v10m0 5.02v10m0 5v10.02m0 5v10m0 5.02v10m0 5.02v10m0 5v10.02m0 5v10.02m0 5v10.02m0 5v10.02m0 5v10m0 5.02v10m0 5.02v10m0 5v10.02m0 5v10.02m0 5v10.02m0 5v10.02m0 5v10m0 5.02v10m0 5.02v10m0 5v10.02m0 5v10.02m0 5v10.02m0 5v10.02m0 5v10m0 5.02v10m0 5.02v10m0 5v10.03m0 5v10m0 5.02v10m0 5.02v10m0 5v10.02m0 5v10m0 5.02v10m0 5v10.03m0 5v10m0 5.02v10m0 5.02v10m0 5v10m0 5.02v10m0 5.02v10m0 5v10.03m0 5v10m0 5.02v10m0 5v10.02m0 5v10.02m0 5v5" stroke="#5e5e5e" fill="none"/><path d="M3229.5 263h-1v-.52h1zM3229.5 1104.45h-1v-.52h1z" fill="#5e5e5e"/><path d="M3486.68 206c0-3.3 2.7-6 6-6h151c3.33 0 6 2.7 6 6v49.98c0 3.32-2.67 6-6 6h-151c-3.3 0-6-2.68-6-6z" stroke="#5e5e5e" fill="#fff"/><use xlink:href="#j" transform="matrix(1,0,0,1,3486.6834079464024,200.0000000000002) translate(44.04820987654322 33.59722222222222)"/><path d="M3486.68 1110.95c0-3.32 2.7-6 6-6h151c3.33 0 6 2.68 6 6v49.98c0 3.3-2.67 6-6 6h-151c-3.3 0-6-2.7-6-6z" stroke="#5e5e5e" fill="#fff"/><use xlink:href="#j" transform="matrix(1,0,0,1,3486.6834079464024,1104.9464970724816) translate(44.04820987654322 33.59722222222222)"/><path d="M3568.2 262.98v5m0 5v10.03m0 5v10.02m0 5v10.02m0 5v10.02m0 5v10m0 5.02v10m0 5.02v10m0 5v10.03m0 5v10m0 5.02v10m0 5.02v10m0 5v10.02m0 5v10m0 5.02v10m0 5.02v10m0 5v10.02m0 5v10.02m0 5v10.02m0 5v10.02m0 5v10m0 5.02v10m0 5.02v10m0 5v10.02m0 5v10.02m0 5v10.02m0 5v10.02m0 5v10m0 5.02v10m0 5.02v10m0 5v10.02m0 5v10.02m0 5v10.02m0 5v10.02m0 5v10m0 5.02v10m0 5.02v10m0 5v10.03m0 5v10m0 5.02v10m0 5.02v10m0 5v10.02m0 5v10m0 5.02v10m0 5v10.03m0 5v10m0 5.02v10m0 5.02v10m0 5v10m0 5.02v10m0 5.02v10m0 5v10.03m0 5v10m0 5.02v10m0 5v10.02m0 5v10.02m0 5v5" stroke="#5e5e5e" fill="none"/><path d="M3568.7 263h-1v-.52h1zM3568.7 1104.45h-1v-.52h1z" fill="#5e5e5e"/><path d="M3812.7 206c0-3.3 2.7-6 6-6h151c3.33 0 6 2.7 6 6v49.98c0 3.32-2.67 6-6 6h-151c-3.3 0-6-2.68-6-6z" stroke="#5e5e5e" fill="#fff"/><use xlink:href="#k" transform="matrix(1,0,0,1,3812.702958153667,200.0000000000002) translate(32.196358024691364 33.59722222222222)"/><path d="M3812.7 1110.95c0-3.32 2.7-6 6-6h151c3.33 0 6 2.68 6 6v49.98c0 3.3-2.67 6-6 6h-151c-3.3 0-6-2.7-6-6z" stroke="#5e5e5e" fill="#fff"/><use xlink:href="#k" transform="matrix(1,0,0,1,3812.702958153667,1104.9464970724816) translate(32.196358024691364 33.59722222222222)"/><path d="M3894.2 262.98v5m0 5v10.03m0 5v10.02m0 5v10.02m0 5v10.02m0 5v10m0 5.02v10m0 5.02v10m0 5v10.03m0 5v10m0 5.02v10m0 5.02v10m0 5v10.02m0 5v10m0 5.02v10m0 5.02v10m0 5v10.02m0 5v10.02m0 5v10.02m0 5v10.02m0 5v10m0 5.02v10m0 5.02v10m0 5v10.02m0 5v10.02m0 5v10.02m0 5v10.02m0 5v10m0 5.02v10m0 5.02v10m0 5v10.02m0 5v10.02m0 5v10.02m0 5v10.02m0 5v10m0 5.02v10m0 5.02v10m0 5v10.03m0 5v10m0 5.02v10m0 5.02v10m0 5v10.02m0 5v10m0 5.02v10m0 5v10.03m0 5v10m0 5.02v10m0 5.02v10m0 5v10m0 5.02v10m0 5.02v10m0 5v10.03m0 5v10m0 5.02v10m0 5v10.02m0 5v10.02m0 5v5" stroke="#5e5e5e" fill="none"/><path d="M3894.7 263h-1v-.52h1zM3894.7 1104.45h-1v-.52h1z" fill="#5e5e5e"/><path d="M4138.72 206c0-3.3 2.7-6 6-6h151c3.33 0 6 2.7 6 6v49.98c0 3.32-2.67 6-6 6h-151c-3.3 0-6-2.68-6-6z" stroke="#5e5e5e" fill="#fff"/><use xlink:href="#l" transform="matrix(1,0,0,1,4138.722508360934,200.0000000000002) translate(64.76425925925926 33.59722222222222)"/><path d="M4138.72 1110.95c0-3.32 2.7-6 6-6h151c3.33 0 6 2.68 6 6v49.98c0 3.3-2.67 6-6 6h-151c-3.3 0-6-2.7-6-6z" stroke="#5e5e5e" fill="#fff"/><use xlink:href="#l" transform="matrix(1,0,0,1,4138.722508360934,1104.9464970724816) translate(64.76425925925926 33.59722222222222)"/><path d="M4220.23 262.98v5m0 5v10.03m0 5v10.02m0 5v10.02m0 5v10.02m0 5v10m0 5.02v10m0 5.02v10m0 5v10.03m0 5v10m0 5.02v10m0 5.02v10m0 5v10.02m0 5v10m0 5.02v10m0 5.02v10m0 5v10.02m0 5v10.02m0 5v10.02m0 5v10.02m0 5v10m0 5.02v10m0 5.02v10m0 5v10.02m0 5v10.02m0 5v10.02m0 5v10.02m0 5v10m0 5.02v10m0 5.02v10m0 5v10.02m0 5v10.02m0 5v10.02m0 5v10.02m0 5v10m0 5.02v10m0 5.02v10m0 5v10.03m0 5v10m0 5.02v10m0 5.02v10m0 5v10.02m0 5v10m0 5.02v10m0 5v10.03m0 5v10m0 5.02v10m0 5.02v10m0 5v10m0 5.02v10m0 5.02v10m0 5v10.03m0 5v10m0 5.02v10m0 5v10.02m0 5v10.02m0 5v5" stroke="#5e5e5e" fill="none"/><path d="M4220.73 263h-1v-.52h1zM4220.73 1104.45h-1v-.52h1z" fill="#5e5e5e"/><path d="M802 299.63h323.13M802.02 299.63h-.52" stroke="#5e5e5e" fill="none"/><path d="M1139.9 299.63l-14.27 4.63V295z" stroke="#5e5e5e" fill="#5e5e5e"/><use xlink:href="#m" transform="matrix(1,0,0,1,887.9549432814227,279.6281014149626) translate(0 10.666666666666668)"/><use xlink:href="#n" transform="matrix(1,0,0,1,887.9549432814227,279.6281014149626) translate(98.74074074074073 10.666666666666668)"/><use xlink:href="#o" transform="matrix(1,0,0,1,887.9549432814227,279.6281014149626) translate(105 10.666666666666668)"/><path d="M1512.05 373.92h309.13M1512.06 373.92h-.5" stroke="#5e5e5e" fill="none"/><path d="M1835.95 373.92l-14.27 4.63v-9.27z" stroke="#5e5e5e" fill="#5e5e5e"/><use xlink:href="#p" transform="matrix(1,0,0,1,1631.6691858221313,353.91903024488744) translate(0 10.666666666666668)"/><use xlink:href="#q" transform="matrix(1,0,0,1,1631.6691858221313,353.91903024488744) translate(29.888888888888893 10.666666666666668)"/><path d="M1142.02 336.77h353.14M1142.03 336.77h-.5" stroke="#5e5e5e" fill="none"/><path d="M1509.93 336.77l-14.27 4.64v-9.26z" stroke="#5e5e5e" fill="#5e5e5e"/><use xlink:href="#m" transform="matrix(1,0,0,1,1238.2359085684686,316.773565829925) translate(0 10.666666666666668)"/><use xlink:href="#n" transform="matrix(1,0,0,1,1238.2359085684686,316.773565829925) translate(98.74074074074073 10.666666666666668)"/><use xlink:href="#r" transform="matrix(1,0,0,1,1238.2359085684686,316.773565829925) translate(105 10.666666666666668)"/><path d="M1512.05 460.6h722.5M1512.06 460.6h-.5" stroke="#5e5e5e" fill="none"/><path d="M2249.32 460.6l-14.27 4.63v-9.27z" stroke="#5e5e5e" fill="#5e5e5e"/><use xlink:href="#s" transform="matrix(1,0,0,1,1838.518663172279,440.59178054646634) translate(0 10.666666666666668)"/><use xlink:href="#t" transform="matrix(1,0,0,1,1838.518663172279,440.59178054646634) translate(33.333333333333336 10.666666666666668)"/><use xlink:href="#u" transform="matrix(1,0,0,1,1838.518663172279,440.59178054646634) translate(55.14814814814815 10.666666666666668)"/><path d="M1512.05 522.5h1048.52M1512.06 522.5h-.5" stroke="#5e5e5e" fill="none"/><path d="M2575.33 522.5l-14.26 4.64v-9.27z" stroke="#5e5e5e" fill="#5e5e5e"/><use xlink:href="#s" transform="matrix(1,0,0,1,1985.954364201837,502.50088790473706) translate(0 10.666666666666668)"/><use xlink:href="#v" transform="matrix(1,0,0,1,1985.954364201837,502.50088790473706) translate(33.333333333333336 10.666666666666668)"/><use xlink:href="#w" transform="matrix(1,0,0,1,1985.954364201837,502.50088790473706) translate(86.62962962962963 10.666666666666668)"/><path d="M1512.05 584.4H2886.6M1512.06 584.4h-.5" stroke="#5e5e5e" fill="none"/><path d="M2901.35 584.4l-14.26 4.65v-9.28z" stroke="#5e5e5e" fill="#5e5e5e"/><use xlink:href="#x" transform="matrix(1,0,0,1,2178.223398564729,564.4099952630078) translate(0 10.666666666666668)"/><use xlink:href="#y" transform="matrix(1,0,0,1,2178.223398564729,564.4099952630078) translate(29.92592592592593 10.666666666666668)"/><path d="M1457.2 392.6c0-3.3 2.7-6 6-6h88c3.33 0 6 2.7 6 6v8c0 3.32-1.9 7.9-4.23 10.25l-1.52 1.5c-2.34 2.35-6.92 4.25-10.24 4.25h-78c-3.3 0-6-2.68-6-6z" fill="#fff"/><path d="M1557.2 386.6v20l-10 10h-90" stroke="#5e5e5e" fill="none"/><path d="M1457.2 392.6c0-3.3 2.7-6 6-6h1488.1c3.32 0 6 2.7 6 6v198.28c0 3.3-2.68 6-6 6H1463.2c-3.3 0-6-2.7-6-6zM1457.2 473.2h20m15 0h20m15 0h20m15 0h20m15 0h20m15 0h20m15 0h20m15 0h20m15 0h20m15 0h20m15 0h20m15 0h20m15 0h20m15 0h20m15 0h20m15 0h20m15 0h20m15 0h20m15 0h20m15 0h20m15 0h20m15 0h20m15 0h20m15 0h20m15 0h20m15 0h20m15 0h20m15 0h20m15 0h20m15 0h20m15 0h20m15 0h20m15 0h20m15 0h20m15 0h20m15 0h20m15 0h20m15 0h20m15 0h20m15 0h20m15 0h20m15 0h20m15 0h20M1457.2 535.03h20m15 0h20m15 0h20m15 0h20m15 0h20m15 0h20m15 0h20m15 0h20m15 0h20m15 0h20m15 0h20m15 0h20m15 0h20m15 0h20m15 0h20m15 0h20m15 0h20m15 0h20m15 0h20m15 0h20m15 0h20m15 0h20m15 0h20m15 0h20m15 0h20m15 0h20m15 0h20m15 0h20m15 0h20m15 0h20m15 0h20m15 0h20m15 0h20m15 0h20m15 0h20m15 0h20m15 0h20m15 0h20m15 0h20m15 0h20m15 0h20m15 0h20m15 0h20" stroke="#5e5e5e" fill="none"/><use xlink:href="#z" transform="matrix(1,0,0,1,1465.2117079061782,386.60419709979703) translate(0 18.555555555555557)"/><use xlink:href="#A" transform="matrix(1,0,0,1,1469.2117079061782,424.60419709979703) translate(0 18.555555555555557)"/><use xlink:href="#B" transform="matrix(1,0,0,1,1469.2117079061782,481.1884716333534) translate(0 18.555555555555557)"/><use xlink:href="#C" transform="matrix(1,0,0,1,1469.2117079061782,543.0343820144651) translate(0 18.555555555555557)"/><path d="M1783.23 615.25c0-3.3 2.7-6 6-6h88c3.3 0 6 2.7 6 6v8c0 3.3-1.9 7.9-4.24 10.24l-1.53 1.5c-2.34 2.35-6.93 4.25-10.24 4.25h-78c-3.3 0-6-2.7-6-6z" fill="#fff"/><path d="M1883.23 609.25v20l-10 10h-90" stroke="#5e5e5e" fill="none"/><path d="M1783.23 615.25c0-3.3 2.7-6 6-6h1827.3c3.3 0 6 2.7 6 6v136.43c0 3.3-2.7 6-6 6h-1827.3c-3.3 0-6-2.7-6-6zM1783.23 695.83h20m15 0h20m15 0h20m15 0h20m15 0h20m15 0h20m15 0h20m15 0h20m15 0h20m15 0h20m15 0h20m15 0h20m15 0h20m15 0h20m15 0h20m15 0h20m15 0h20m15 0h20m15 0h20m15 0h20m15 0h20m15 0h20m15 0h20m15 0h20m15 0h20m15 0h20m15 0h20m15 0h20m15 0h20m15 0h20m15 0h20m15 0h20m15 0h20m15 0h20m15 0h20m15 0h20m15 0h20m15 0h20m15 0h20m15 0h20m15 0h20m15 0h20m15 0h20m15 0h20m15 0h20m15 0h20m15 0h20m15 0h20m15 0h20m15 0h20m15 0h20m15 0h20m15 0h19.3" stroke="#5e5e5e" fill="none"/><use xlink:href="#z" transform="matrix(1,0,0,1,1791.2312581134424,609.2494744717992) translate(0 18.555555555555557)"/><use xlink:href="#D" transform="matrix(1,0,0,1,1795.2312581134424,647.2494744717992) translate(0 18.555555555555557)"/><use xlink:href="#E" transform="matrix(1,0,0,1,1795.2312581134424,703.8337490053557) translate(0 18.555555555555557)"/><path d="M1838.07 683.46H3212.6M1838.08 683.46h-.5" stroke="#5e5e5e" fill="none"/><path d="M3227.37 683.46l-14.26 4.64v-9.27z" stroke="#5e5e5e" fill="#5e5e5e"/><use xlink:href="#F" transform="matrix(1,0,0,1,2449.3910969201424,663.4645670362409) translate(0 10.666666666666668)"/><use xlink:href="#G" transform="matrix(1,0,0,1,2449.3910969201424,663.4645670362409) translate(79.55555555555556 10.666666666666668)"/><use xlink:href="#H" transform="matrix(1,0,0,1,2449.3910969201424,663.4645670362409) translate(105.66666666666667 10.666666666666668)"/><path d="M1838.07 745.37H3551.8M1838.08 745.37h-.5" stroke="#5e5e5e" fill="none"/><path d="M3566.57 745.37L3552.3 750v-9.26z" stroke="#5e5e5e" fill="#5e5e5e"/><use xlink:href="#F" transform="matrix(1,0,0,1,2597.433628211991,725.3736743945116) translate(0 10.666666666666668)"/><use xlink:href="#G" transform="matrix(1,0,0,1,2597.433628211991,725.3736743945116) translate(79.55555555555556 10.666666666666668)"/><use xlink:href="#I" transform="matrix(1,0,0,1,2597.433628211991,725.3736743945116) translate(105.66666666666667 10.666666666666668)"/><path d="M3229.5 906.34h974.34M3229.5 906.34h-.5" stroke="#5e5e5e" fill="none"/><path d="M4218.6 906.34l-14.26 4.63v-9.27z" stroke="#5e5e5e" fill="#5e5e5e"/><use xlink:href="#J" transform="matrix(1,0,0,1,3644.4245736728944,886.3373535260152) translate(0 10.666666666666668)"/><use xlink:href="#K" transform="matrix(1,0,0,1,3644.4245736728944,886.3373535260152) translate(41.1851851851852 10.666666666666668)"/><use xlink:href="#L" transform="matrix(1,0,0,1,3644.4245736728944,886.3373535260152) translate(71.14814814814817 10.666666666666668)"/><use xlink:href="#M" transform="matrix(1,0,0,1,3644.4245736728944,886.3373535260152) translate(85.59259259259261 10.666666666666668)"/><path d="M3229.5 844.43h648.32M3229.5 844.43h-.5" stroke="#5e5e5e" fill="none"/><path d="M3892.6 844.43l-14.28 4.63v-9.27z" stroke="#5e5e5e" fill="#5e5e5e"/><use xlink:href="#N" transform="matrix(1,0,0,1,3521.8407244951877,824.4282461677446) translate(0 10.666666666666668)"/><use xlink:href="#O" transform="matrix(1,0,0,1,3521.8407244951877,824.4282461677446) translate(17.407407407407412 10.666666666666668)"/><path d="M3174.66 776.05c0-3.3 2.68-6 6-6h88c3.3 0 6 2.7 6 6v8c0 3.3-1.9 7.9-4.25 10.24l-1.5 1.5c-2.34 2.35-6.93 4.25-10.24 4.25h-78c-3.32 0-6-2.7-6-6z" fill="#fff"/><path d="M3274.66 770.05v20l-10 10h-90" stroke="#5e5e5e" fill="none"/><path d="M3174.66 776.05c0-3.3 2.68-6 6-6h1087.9c3.32 0 6 2.7 6 6v136.43c0 3.3-2.68 6-6 6h-1087.9c-3.32 0-6-2.7-6-6zM3174.66 856.63h20m15 0h20m15 0h20m15 0h20m15 0h20m15 0h20m15 0h20m15 0h20m15 0h20m15 0h20m15 0h20m15 0h20m15 0h20m15 0h20m15 0h20m15 0h20m15 0h20m15 0h20m15 0h20m15 0h20m15 0h20m15 0h20m15 0h20m15 0h20m15 0h20m15 0h20m15 0h20m15 0h20m15 0h20m15 0h20m15 0h20m15 0h14.9" stroke="#5e5e5e" fill="none"/><g><use xlink:href="#z" transform="matrix(1,0,0,1,3182.6555301022004,770.0488414626894) translate(0 18.555555555555557)"/></g><g><use xlink:href="#P" transform="matrix(1,0,0,1,3186.6555301022004,808.0488414626894) translate(0 18.555555555555557)"/></g><g><use xlink:href="#Q" transform="matrix(1,0,0,1,3186.6555301022004,864.6331159962459) translate(0 18.555555555555557)"/></g><path d="M3568.7 1067.3h635.14M3568.7 1067.3h-.5" stroke="#5e5e5e" fill="none"/><path d="M4218.6 1067.3l-14.26 4.64v-9.27z" stroke="#5e5e5e" fill="#5e5e5e"/><g><use xlink:href="#J" transform="matrix(1,0,0,1,3820.8559938536323,1047.3010326575193) translate(0 10.666666666666668)"/><use xlink:href="#K" transform="matrix(1,0,0,1,3820.8559938536323,1047.3010326575193) translate(41.1851851851852 10.666666666666668)"/><use xlink:href="#L" transform="matrix(1,0,0,1,3820.8559938536323,1047.3010326575193) translate(71.14814814814817 10.666666666666668)"/><use xlink:href="#R" transform="matrix(1,0,0,1,3820.8559938536323,1047.3010326575193) translate(85.59259259259261 10.666666666666668)"/></g><path d="M3568.7 1005.4h309.12M3568.7 1005.4h-.5" stroke="#5e5e5e" fill="none"/><path d="M3892.6 1005.4l-14.28 4.63v-9.27z" stroke="#5e5e5e" fill="#5e5e5e"/><g><use xlink:href="#N" transform="matrix(1,0,0,1,3691.4388113425916,985.3919252992487) translate(0 10.666666666666668)"/><use xlink:href="#O" transform="matrix(1,0,0,1,3691.4388113425916,985.3919252992487) translate(17.407407407407412 10.666666666666668)"/></g><path d="M3513.85 936.85c0-3.32 2.7-6 6-6h88c3.32 0 6 2.68 6 6v8c0 3.3-1.9 7.9-4.24 10.24l-1.5 1.5c-2.35 2.35-6.93 4.25-10.25 4.25h-78c-3.3 0-6-2.7-6-6z" fill="#fff"/><path d="M3613.85 930.85v20l-10 10h-90" stroke="#5e5e5e" fill="none"/><path d="M3513.85 936.85c0-3.32 2.7-6 6-6h748.7c3.33 0 6 2.68 6 6v136.43c0 3.3-2.67 6-6 6h-748.7c-3.3 0-6-2.7-6-6zM3513.85 1017.43h20m15 0h20m15 0h20m15 0h20m15 0h20m15 0h20m15 0h20m15 0h20m15 0h20m15 0h20m15 0h20m15 0h20m15 0h20m15 0h20m15 0h20m15 0h20m15 0h20m15 0h20m15 0h20m15 0h20m15 0h20m15 0h20" stroke="#5e5e5e" fill="none"/><g><use xlink:href="#z" transform="matrix(1,0,0,1,3521.851703797008,930.8482084535813) translate(0 18.555555555555557)"/></g><g><use xlink:href="#P" transform="matrix(1,0,0,1,3525.851703797008,968.8482084535813) translate(0 18.555555555555557)"/></g><g><use xlink:href="#Q" transform="matrix(1,0,0,1,3525.851703797008,1025.4324829871377) translate(0 18.555555555555557)"/></g><defs><path fill="#333" d="M32-163c41-10 102-14 102 39v112c8 3 24-2 21 12h-45l-4-17C83 13 3 13 13-46c-2-50 45-50 92-51 4-36-5-70-42-56-6 2-12 4-16 6-4 7 0 23-15 20v-36zM42-47c0 41 41 33 63 22v-59c-34 1-63-1-63 37" id="S"/><path fill="#333" d="M166-85c3 67-44 102-111 85l1 64 29 4v9H6v-9l21-4v-217c-7-3-22 1-19-12h46l1 9c11-8 26-14 45-14 47 2 64 36 66 85zM56-13c53 14 83-14 78-72 7-53-33-79-78-60v132" id="T"/><path fill="#333" d="M45-37c13 0 21 8 21 21C67-2 57 4 45 5 33 4 23-2 24-16c0-13 8-21 21-21" id="U"/><path fill="#333" d="M54-38c-1 25 24 26 44 20v12C71 10 25 9 25-35v-115H4c-2-14 14-10 21-15l18-38h11v38h38v15H54v112" id="V"/><path fill="#333" d="M41-130c7 48 86 23 86 84 0 56-69 57-112 41v-40c20 0 9 29 31 31 35 19 77-26 41-50-27-18-72-13-72-59 0-50 58-52 100-41v36c-19 1-8-25-28-25-21-7-50-1-46 23" id="W"/><g id="a"><use transform="matrix(0.049382716049382706,0,0,0.049382716049382706,0,0)" xlink:href="#S"/><use transform="matrix(0.049382716049382706,0,0,0.049382716049382706,7.85185185185185,0)" xlink:href="#T"/><use transform="matrix(0.049382716049382706,0,0,0.049382716049382706,16.740740740740737,0)" xlink:href="#T"/><use transform="matrix(0.049382716049382706,0,0,0.049382716049382706,25.629629629629626,0)" xlink:href="#U"/><use transform="matrix(0.049382716049382706,0,0,0.049382716049382706,30.07407407407407,0)" xlink:href="#V"/><use transform="matrix(0.049382716049382706,0,0,0.049382716049382706,35.01234567901234,0)" xlink:href="#W"/></g><path fill="#333" d="M45-84c0 64 52 80 104 63 1 25-30 25-55 25-56 0-80-32-80-88 0-76 62-98 131-80v46h-10c-5-15-4-31-23-35-47-10-67 21-67 69" id="X"/><path fill="#333" d="M84-170c49 0 66 33 63 87H46c-8 60 38 80 95 63v10C128-2 108 4 88 4 34 4 14-29 14-84c-1-54 22-86 70-86zm33 73c12-57-57-82-69-24-1 7-2 15-2 24h71" id="Y"/><g id="b"><use transform="matrix(0.049382716049382706,0,0,0.049382716049382706,0,0)" xlink:href="#S"/><use transform="matrix(0.049382716049382706,0,0,0.049382716049382706,7.85185185185185,0)" xlink:href="#X"/><use transform="matrix(0.049382716049382706,0,0,0.049382716049382706,15.7037037037037,0)" xlink:href="#X"/><use transform="matrix(0.049382716049382706,0,0,0.049382716049382706,23.55555555555555,0)" xlink:href="#Y"/><use transform="matrix(0.049382716049382706,0,0,0.049382716049382706,31.4074074074074,0)" xlink:href="#W"/><use transform="matrix(0.049382716049382706,0,0,0.049382716049382706,38.32098765432098,0)" xlink:href="#W"/><use transform="matrix(0.049382716049382706,0,0,0.049382716049382706,45.234567901234556,0)" xlink:href="#U"/><use transform="matrix(0.049382716049382706,0,0,0.049382716049382706,49.679012345679,0)" xlink:href="#V"/><use transform="matrix(0.049382716049382706,0,0,0.049382716049382706,54.61728395061727,0)" xlink:href="#W"/></g><path fill="#333" d="M65-12l28 4v8H7v-8l28-4v-226l-28-4v-8h58v238" id="Z"/><path fill="#333" d="M161-154L85 37C75 66 49 86 8 75V39c18-2 6 24 29 21 30-4 38-32 47-58L21-153c-7-3-20 0-17-12h77v8l-26 4 45 116 43-116-26-4v-8h62v8" id="aa"/><path fill="#333" d="M90-170c52 0 76 32 76 87 0 54-24 87-77 87-51 0-75-34-75-87 0-54 24-87 76-87zM89-10c39 0 46-35 46-73 0-39-7-73-46-73-39 1-44 34-44 73s6 72 44 73" id="ab"/><path fill="#333" d="M124-13C89 8 26 15 26-45v-108c-8-3-24 2-21-12h50v118c-3 37 42 32 69 25v-131l-25-4v-8h54v153c8 3 24-2 21 12h-48" id="ac"/><g id="c"><use transform="matrix(0.049382716049382706,0,0,0.049382716049382706,0,0)" xlink:href="#Z"/><use transform="matrix(0.049382716049382706,0,0,0.049382716049382706,4.93827160493827,0)" xlink:href="#S"/><use transform="matrix(0.049382716049382706,0,0,0.049382716049382706,12.790123456790122,0)" xlink:href="#aa"/><use transform="matrix(0.049382716049382706,0,0,0.049382716049382706,21.679012345679006,0)" xlink:href="#ab"/><use transform="matrix(0.049382716049382706,0,0,0.049382716049382706,30.56790123456789,0)" xlink:href="#ac"/><use transform="matrix(0.049382716049382706,0,0,0.049382716049382706,39.45679012345678,0)" xlink:href="#V"/><use transform="matrix(0.049382716049382706,0,0,0.049382716049382706,44.39506172839505,0)" xlink:href="#W"/></g><path fill="#333" d="M111-226l-36 4v207c33-1 73 2 101-4l11-49h11l-3 68H10v-9l31-5v-208l-31-4v-10h101v10" id="ad"/><path fill="#333" d="M178-68c0 79-95 82-154 59v-54h12c1 35 22 52 60 52 50 0 69-58 33-82-39-24-105-21-105-85 0-67 86-66 142-53v49h-12l-6-29c-31-27-121-7-89 42 28 43 119 24 119 101" id="ae"/><path fill="#333" d="M57-145c16-10 35-24 60-25v45c-19 1-8-30-40-17l-20 6v124l29 4v8H7v-8l21-4v-141c-8-3-24 2-21-12h48" id="af"/><g id="d"><use transform="matrix(0.049382716049382706,0,0,0.049382716049382706,0,0)" xlink:href="#ad"/><use transform="matrix(0.049382716049382706,0,0,0.049382716049382706,10.814814814814813,0)" xlink:href="#S"/><use transform="matrix(0.049382716049382706,0,0,0.049382716049382706,18.666666666666664,0)" xlink:href="#aa"/><use transform="matrix(0.049382716049382706,0,0,0.049382716049382706,27.55555555555555,0)" xlink:href="#ab"/><use transform="matrix(0.049382716049382706,0,0,0.049382716049382706,36.444444444444436,0)" xlink:href="#ac"/><use transform="matrix(0.049382716049382706,0,0,0.049382716049382706,45.33333333333332,0)" xlink:href="#V"/><use transform="matrix(0.049382716049382706,0,0,0.049382716049382706,50.271604938271594,0)" xlink:href="#ae"/><use transform="matrix(0.049382716049382706,0,0,0.049382716049382706,60.14814814814814,0)" xlink:href="#Y"/><use transform="matrix(0.049382716049382706,0,0,0.049382716049382706,67.99999999999999,0)" xlink:href="#Z"/><use transform="matrix(0.049382716049382706,0,0,0.049382716049382706,72.93827160493825,0)" xlink:href="#Y"/><use transform="matrix(0.049382716049382706,0,0,0.049382716049382706,80.7901234567901,0)" xlink:href="#X"/><use transform="matrix(0.049382716049382706,0,0,0.049382716049382706,88.64197530864195,0)" xlink:href="#V"/><use transform="matrix(0.049382716049382706,0,0,0.049382716049382706,93.58024691358021,0)" xlink:href="#ab"/><use transform="matrix(0.049382716049382706,0,0,0.049382716049382706,102.4691358024691,0)" xlink:href="#af"/></g><path fill="#333" d="M10-9l31-5v-208l-31-4v-10h177v57h-11l-6-38c-28-4-63-3-95-3v92h63l6-28h11v73h-11l-6-29H75v96l105-3 10-43h12l-3 62H10v-9" id="ag"/><path fill="#333" d="M156-12c7 3 23-1 20 12h-75v-8l22-4-38-58-45 58 23 4v8H3v-8l19-3 55-71-48-71c-7-3-23 1-20-12h75v8l-22 4 32 48 37-48-23-4v-8h59v8l-19 3-46 60" id="ah"/><path fill="#333" d="M47-200c-23 0-25-39 0-38 13 0 18 7 20 19-1 11-8 19-20 19zM65-12l28 4v8H8v-8l28-4v-141l-24-4v-8h53v153" id="ai"/><path fill="#333" d="M125-118c4-37-41-34-68-26v132l23 4v8H8C5-13 21-9 28-12v-141c-7-3-23 1-20-12h47l2 13c31-23 98-29 98 31v109c7 3 23-1 20 12h-72v-8l22-4v-106" id="aj"/><path fill="#333" d="M142-52V0h-30v-52H7v-23l115-162h20v160h32v25h-32zm-30-25l-1-119L27-77h85" id="ak"/><path fill="#333" d="M90-239c59 0 76 52 76 120S152 4 89 4C31 4 14-51 14-119c0-67 17-120 76-120zM89-10c45-6 45-58 45-109 0-50 0-101-45-106-45 4-43 57-43 106 0 50-2 104 43 109" id="al"/><g id="e"><use transform="matrix(0.049382716049382706,0,0,0.049382716049382706,0,0)" xlink:href="#ag"/><use transform="matrix(0.049382716049382706,0,0,0.049382716049382706,10.814814814814813,0)" xlink:href="#ah"/><use transform="matrix(0.049382716049382706,0,0,0.049382716049382706,19.703703703703702,0)" xlink:href="#X"/><use transform="matrix(0.049382716049382706,0,0,0.049382716049382706,27.555555555555557,0)" xlink:href="#Y"/><use transform="matrix(0.049382716049382706,0,0,0.049382716049382706,35.407407407407405,0)" xlink:href="#T"/><use transform="matrix(0.049382716049382706,0,0,0.049382716049382706,44.29629629629629,0)" xlink:href="#V"/><use transform="matrix(0.049382716049382706,0,0,0.049382716049382706,49.23456790123456,0)" xlink:href="#ai"/><use transform="matrix(0.049382716049382706,0,0,0.049382716049382706,54.17283950617284,0)" xlink:href="#ab"/><use transform="matrix(0.049382716049382706,0,0,0.049382716049382706,63.061728395061714,0)" xlink:href="#aj"/><use transform="matrix(0.049382716049382706,0,0,0.049382716049382706,71.9506172839506,0)" xlink:href="#ak"/><use transform="matrix(0.049382716049382706,0,0,0.049382716049382706,80.83950617283949,0)" xlink:href="#al"/><use transform="matrix(0.049382716049382706,0,0,0.049382716049382706,89.72839506172838,0)" xlink:href="#ak"/></g><path fill="#333" d="M126-119c3-38-42-31-69-25v132l23 4v8H7v-8l21-4v-226l-24-4v-8h53l-1 98c31-22 99-31 99 31v109c7 3 23-1 20 12h-71v-8l22-4v-107" id="am"/><path fill="#333" d="M240-154L185 4h-14l-41-109L90 4H77L20-153c-7-3-23 1-20-12h79v8l-27 4L91-41l40-108h14l40 109 38-113-28-4v-8h63v8" id="an"/><g id="f"><use transform="matrix(0.049382716049382706,0,0,0.049382716049382706,0,0)" xlink:href="#V"/><use transform="matrix(0.049382716049382706,0,0,0.049382716049382706,4.93827160493827,0)" xlink:href="#am"/><use transform="matrix(0.049382716049382706,0,0,0.049382716049382706,13.827160493827158,0)" xlink:href="#af"/><use transform="matrix(0.049382716049382706,0,0,0.049382716049382706,19.7037037037037,0)" xlink:href="#ab"/><use transform="matrix(0.049382716049382706,0,0,0.049382716049382706,28.592592592592588,0)" xlink:href="#an"/></g><g id="g"><use transform="matrix(0.049382716049382706,0,0,0.049382716049382706,0,0)" xlink:href="#ag"/><use transform="matrix(0.049382716049382706,0,0,0.049382716049382706,10.814814814814813,0)" xlink:href="#af"/><use transform="matrix(0.049382716049382706,0,0,0.049382716049382706,16.691358024691354,0)" xlink:href="#af"/><use transform="matrix(0.049382716049382706,0,0,0.049382716049382706,22.567901234567895,0)" xlink:href="#ab"/><use transform="matrix(0.049382716049382706,0,0,0.049382716049382706,31.456790123456784,0)" xlink:href="#af"/></g><path fill="#333" d="M141-152c28 39 5 97-54 97-9 0-20-2-27-3L49-35c29 22 130-14 124 52-4 45-38 57-88 61C21 83-8 26 45-2 33-6 22-15 21-31l28-31c-19-9-28-26-28-51-2-51 53-65 100-52l38-20 7 8zM85 64c35 0 61-11 61-42 0-35-57-17-89-21-9 8-16 19-17 34 0 25 19 29 45 29zM52-113c1 26 7 46 35 44 28-1 34-16 35-44 0-26-6-43-34-43s-36 17-36 43" id="ao"/><g id="h"><use transform="matrix(0.049382716049382706,0,0,0.049382716049382706,0,0)" xlink:href="#ad"/><use transform="matrix(0.049382716049382706,0,0,0.049382716049382706,10.814814814814813,0)" xlink:href="#ab"/><use transform="matrix(0.049382716049382706,0,0,0.049382716049382706,19.703703703703702,0)" xlink:href="#ao"/><use transform="matrix(0.049382716049382706,0,0,0.049382716049382706,28.592592592592588,0)" xlink:href="#ai"/><use transform="matrix(0.049382716049382706,0,0,0.049382716049382706,33.53086419753086,0)" xlink:href="#aj"/></g><path fill="#333" d="M75-131c50 2 93 3 93-48 0-46-48-41-93-41v89zm0 115c55 4 111 6 111-51 0-53-58-48-111-48v99zm148-52C223 24 102-3 10 0v-9l31-5v-208l-31-4v-10c77 6 193-24 194 56 0 33-20 48-48 54 36 5 67 20 67 58" id="ap"/><path fill="#333" d="M60-80l68-73c-7-3-20 0-17-12h58c3 13-13 9-20 12l-47 48 60 93c7 3 21-1 18 12h-68c-3-12 9-9 15-12L82-83 60-60v48c7 3 21-1 18 12H10v-8l21-4v-226l-24-4v-8h53v170" id="aq"/><g id="i"><use transform="matrix(0.049382716049382706,0,0,0.049382716049382706,0,0)" xlink:href="#ap"/><use transform="matrix(0.049382716049382706,0,0,0.049382716049382706,11.85185185185185,0)" xlink:href="#Z"/><use transform="matrix(0.049382716049382706,0,0,0.049382716049382706,16.79012345679012,0)" xlink:href="#S"/><use transform="matrix(0.049382716049382706,0,0,0.049382716049382706,24.64197530864197,0)" xlink:href="#aj"/><use transform="matrix(0.049382716049382706,0,0,0.049382716049382706,33.53086419753086,0)" xlink:href="#aq"/><use transform="matrix(0.049382716049382706,0,0,0.049382716049382706,42.419753086419746,0)" xlink:href="#ad"/><use transform="matrix(0.049382716049382706,0,0,0.049382716049382706,53.234567901234556,0)" xlink:href="#S"/><use transform="matrix(0.049382716049382706,0,0,0.049382716049382706,61.08641975308641,0)" xlink:href="#aa"/><use transform="matrix(0.049382716049382706,0,0,0.049382716049382706,69.97530864197529,0)" xlink:href="#ab"/><use transform="matrix(0.049382716049382706,0,0,0.049382716049382706,78.86419753086417,0)" xlink:href="#ac"/><use transform="matrix(0.049382716049382706,0,0,0.049382716049382706,87.75308641975306,0)" xlink:href="#V"/></g><path fill="#333" d="M75-108c48 3 76-12 76-58s-28-57-76-54v112zm111-58c-1 60-46 78-111 74v78l37 5v9H13v-9l28-5v-208l-31-4v-10c81 1 178-14 176 70" id="ar"/><g id="j"><use transform="matrix(0.049382716049382706,0,0,0.049382716049382706,0,0)" xlink:href="#ar"/><use transform="matrix(0.049382716049382706,0,0,0.049382716049382706,9.87654320987654,0)" xlink:href="#af"/><use transform="matrix(0.049382716049382706,0,0,0.049382716049382706,15.75308641975308,0)" xlink:href="#ab"/><use transform="matrix(0.049382716049382706,0,0,0.049382716049382706,24.641975308641968,0)" xlink:href="#ad"/><use transform="matrix(0.049382716049382706,0,0,0.049382716049382706,35.456790123456784,0)" xlink:href="#S"/><use transform="matrix(0.049382716049382706,0,0,0.049382716049382706,43.30864197530863,0)" xlink:href="#aa"/><use transform="matrix(0.049382716049382706,0,0,0.049382716049382706,52.19753086419752,0)" xlink:href="#ab"/><use transform="matrix(0.049382716049382706,0,0,0.049382716049382706,61.08641975308641,0)" xlink:href="#ac"/><use transform="matrix(0.049382716049382706,0,0,0.049382716049382706,69.97530864197529,0)" xlink:href="#V"/></g><path fill="#333" d="M104-123c39 3 61 21 62 59C167 7 83 12 19-4l-2-50h12c2 29 16 43 51 43 38 0 54-19 54-55 2-43-34-49-75-50v-14c37 0 64-7 64-48 0-47-47-56-81-36l-6 29H24v-46c51-13 135-13 131 51-2 34-20 52-51 57" id="as"/><g id="k"><use transform="matrix(0.049382716049382706,0,0,0.049382716049382706,0,0)" xlink:href="#ag"/><use transform="matrix(0.049382716049382706,0,0,0.049382716049382706,10.814814814814813,0)" xlink:href="#ah"/><use transform="matrix(0.049382716049382706,0,0,0.049382716049382706,19.703703703703702,0)" xlink:href="#X"/><use transform="matrix(0.049382716049382706,0,0,0.049382716049382706,27.555555555555557,0)" xlink:href="#Y"/><use transform="matrix(0.049382716049382706,0,0,0.049382716049382706,35.407407407407405,0)" xlink:href="#T"/><use transform="matrix(0.049382716049382706,0,0,0.049382716049382706,44.29629629629629,0)" xlink:href="#V"/><use transform="matrix(0.049382716049382706,0,0,0.049382716049382706,49.23456790123456,0)" xlink:href="#ai"/><use transform="matrix(0.049382716049382706,0,0,0.049382716049382706,54.17283950617284,0)" xlink:href="#ab"/><use transform="matrix(0.049382716049382706,0,0,0.049382716049382706,63.061728395061714,0)" xlink:href="#aj"/><use transform="matrix(0.049382716049382706,0,0,0.049382716049382706,71.9506172839506,0)" xlink:href="#ak"/><use transform="matrix(0.049382716049382706,0,0,0.049382716049382706,80.83950617283949,0)" xlink:href="#al"/><use transform="matrix(0.049382716049382706,0,0,0.049382716049382706,89.72839506172838,0)" xlink:href="#as"/></g><g id="l"><use transform="matrix(0.049382716049382706,0,0,0.049382716049382706,0,0)" xlink:href="#T"/><use transform="matrix(0.049382716049382706,0,0,0.049382716049382706,8.888888888888888,0)" xlink:href="#S"/><use transform="matrix(0.049382716049382706,0,0,0.049382716049382706,16.740740740740737,0)" xlink:href="#ao"/><use transform="matrix(0.049382716049382706,0,0,0.049382716049382706,25.629629629629626,0)" xlink:href="#Y"/></g><path fill="#333" d="M98-18l30 5V0H12v-13l30-5v-200l-30-5v-13h116v13l-30 5v200" id="at"/><path fill="#333" d="M127-114c3-31-26-38-50-25v123l15 4V0H10v-12l16-4v-133l-16-5v-11h64l2 14c31-23 102-32 102 30v105l17 4V0h-82v-12l14-4v-98" id="au"/><path fill="#333" d="M168-150L102 4H81L12-149c-7-2-15-4-12-16h85v11l-20 5 42 94 38-94-19-5v-11h54v11" id="av"/><path fill="#333" d="M31-163c51-5 127-20 127 40v107l17 4V0h-61l-4-13C82 13 12 12 12-46c0-51 46-52 95-53 9-45-22-69-57-44l-7 20H31v-40zM62-47c0 30 26 34 45 23v-59c-28 0-45 6-45 36" id="aw"/><path fill="#333" d="M76-16l18 4V0H7v-12l18-4v-218l-17-4v-12h68v234" id="ax"/><path fill="#333" d="M77-16l18 4V0H8v-12l18-4v-133l-17-5v-11h68v149zM51-196c-16 0-27-10-27-27s10-27 27-27 27 11 27 27c0 17-10 27-27 27" id="ay"/><path fill="#333" d="M15-82c-4-69 47-101 113-83l-1-69-17-4v-12h68v234l18 4V0h-63l-4-9C77 23 5-9 15-82zm112-66c-43-16-64 17-61 65 2 33 3 67 32 67 12 0 22-3 29-8v-124" id="az"/><path fill="#333" d="M78-41c-2 24 21 26 40 20C122 3 98 2 77 4 5 10 32-84 27-147H6v-11l25-7 21-38h26v38h35v18H78v106" id="aA"/><path fill="#333" d="M185-72C185 13 82 14 19-9v-63h16c2 37 21 58 61 58 46 0 69-51 31-71-42-23-106-23-106-90 0-69 87-70 148-56v56h-16l-7-32c-26-25-110-13-82 35 39 34 121 26 121 100" id="aB"/><path fill="#333" d="M12-83c0-55 22-85 75-86 52-1 66 33 63 88H64c-1 37 6 64 44 63 14 0 28-4 39-6 3 28-28 25-55 27-57 4-80-31-80-86zm90-17c2-26 0-63-27-48-10 9-11 28-11 48h38" id="aC"/><g id="m"><use transform="matrix(0.03703703703703704,0,0,0.03703703703703704,0,0)" xlink:href="#at"/><use transform="matrix(0.03703703703703704,0,0,0.03703703703703704,5.185185185185186,0)" xlink:href="#at"/><use transform="matrix(0.03703703703703704,0,0,0.03703703703703704,10.370370370370372,0)" xlink:href="#au"/><use transform="matrix(0.03703703703703704,0,0,0.03703703703703704,17.77777777777778,0)" xlink:href="#av"/><use transform="matrix(0.03703703703703704,0,0,0.03703703703703704,24.444444444444446,0)" xlink:href="#aw"/><use transform="matrix(0.03703703703703704,0,0,0.03703703703703704,31.111111111111114,0)" xlink:href="#ax"/><use transform="matrix(0.03703703703703704,0,0,0.03703703703703704,34.81481481481482,0)" xlink:href="#ay"/><use transform="matrix(0.03703703703703704,0,0,0.03703703703703704,38.51851851851851,0)" xlink:href="#az"/><use transform="matrix(0.03703703703703704,0,0,0.03703703703703704,45.925925925925924,0)" xlink:href="#at"/><use transform="matrix(0.03703703703703704,0,0,0.03703703703703704,51.11111111111111,0)" xlink:href="#au"/><use transform="matrix(0.03703703703703704,0,0,0.03703703703703704,58.51851851851852,0)" xlink:href="#ay"/><use transform="matrix(0.03703703703703704,0,0,0.03703703703703704,62.22222222222222,0)" xlink:href="#aA"/><use transform="matrix(0.03703703703703704,0,0,0.03703703703703704,66.62962962962963,0)" xlink:href="#aB"/><use transform="matrix(0.03703703703703704,0,0,0.03703703703703704,74.03703703703704,0)" xlink:href="#aA"/><use transform="matrix(0.03703703703703704,0,0,0.03703703703703704,78.44444444444444,0)" xlink:href="#aw"/><use transform="matrix(0.03703703703703704,0,0,0.03703703703703704,85.11111111111113,0)" xlink:href="#aA"/><use transform="matrix(0.03703703703703704,0,0,0.03703703703703704,89.51851851851852,0)" xlink:href="#aC"/></g><path fill="#333" d="M27 78v-328h25V78H27" id="aD"/><use transform="matrix(0.03703703703703704,0,0,0.03703703703703704,0,0)" xlink:href="#aD" id="n"/><path fill="#333" d="M128-223l-36 5v199l103-3 14-49h16l-7 71H6v-13l30-5v-200l-30-5v-13h122v13" id="aE"/><path fill="#333" d="M186-86c2 69-46 103-114 85l1 62 25 4v12H5V65l18-4v-210l-18-5v-11h67v8c12-8 26-13 46-13 49 2 67 30 68 84zm-83 71c28 0 31-33 31-69 0-34-2-66-30-66-12 0-23 3-31 7v124c9 2 20 4 30 4" id="aF"/><path fill="#333" d="M91-218c7 77-29 197 56 197 84 0 47-121 55-197l-31-5v-13h80v13l-27 5v137c-1 56-32 84-91 84-59-1-96-26-97-85v-136l-27-5v-13h112v13" id="aG"/><path fill="#333" d="M102-142c-14-17-68-15-54 18 24 26 83 17 83 72 0 62-72 62-120 47v-45h12c4 23 16 37 43 37 35 0 39-37 9-46-31-9-65-19-64-61 0-52 59-55 108-45v43h-11" id="aH"/><path fill="#333" d="M132-132c-21 0-37 9-50 16v100l26 4V0H10v-12l21-4v-133l-21-5v-11h69l2 34c17-18 35-41 71-40v61c-17 3-14-14-20-22" id="aI"/><g id="o"><use transform="matrix(0.03703703703703704,0,0,0.03703703703703704,0,0)" xlink:href="#at"/><use transform="matrix(0.03703703703703704,0,0,0.03703703703703704,5.185185185185186,0)" xlink:href="#aE"/><use transform="matrix(0.03703703703703704,0,0,0.03703703703703704,14.074074074074076,0)" xlink:href="#az"/><use transform="matrix(0.03703703703703704,0,0,0.03703703703703704,21.481481481481485,0)" xlink:href="#aw"/><use transform="matrix(0.03703703703703704,0,0,0.03703703703703704,28.148148148148152,0)" xlink:href="#aF"/><use transform="matrix(0.03703703703703704,0,0,0.03703703703703704,35.55555555555556,0)" xlink:href="#aG"/><use transform="matrix(0.03703703703703704,0,0,0.03703703703703704,45.14814814814815,0)" xlink:href="#aH"/><use transform="matrix(0.03703703703703704,0,0,0.03703703703703704,50.33333333333333,0)" xlink:href="#aC"/><use transform="matrix(0.03703703703703704,0,0,0.03703703703703704,56.22222222222223,0)" xlink:href="#aI"/></g><g id="p"><use transform="matrix(0.03703703703703704,0,0,0.03703703703703704,0,0)" xlink:href="#aH"/><use transform="matrix(0.03703703703703704,0,0,0.03703703703703704,5.185185185185186,0)" xlink:href="#aA"/><use transform="matrix(0.03703703703703704,0,0,0.03703703703703704,9.592592592592595,0)" xlink:href="#aw"/><use transform="matrix(0.03703703703703704,0,0,0.03703703703703704,16.259259259259263,0)" xlink:href="#aI"/><use transform="matrix(0.03703703703703704,0,0,0.03703703703703704,22.148148148148152,0)" xlink:href="#aA"/></g><path fill="#333" d="M9 41c2-18 18-26 32-33C29 1 16-9 16-28l29-33c-21-9-31-25-31-51-2-56 61-65 111-53l39-20c13 12-9 24-14 36 35 54-17 114-90 92-17 34 27 28 56 28 36-1 61 12 60 46-2 46-39 62-91 62-38 0-71-6-76-38zm35-3c6 35 97 29 94-9-2-28-50-14-78-17-8 7-15 14-16 26zm20-150c0 22 4 40 23 40 20 0 24-17 24-40 0-24-4-40-24-40-19 0-23 17-23 40" id="aJ"/><g id="q"><use transform="matrix(0.03703703703703704,0,0,0.03703703703703704,0,0)" xlink:href="#aI"/><use transform="matrix(0.03703703703703704,0,0,0.03703703703703704,5.62962962962963,0)" xlink:href="#aC"/><use transform="matrix(0.03703703703703704,0,0,0.03703703703703704,11.51851851851852,0)" xlink:href="#au"/><use transform="matrix(0.03703703703703704,0,0,0.03703703703703704,18.925925925925927,0)" xlink:href="#az"/><use transform="matrix(0.03703703703703704,0,0,0.03703703703703704,26.333333333333336,0)" xlink:href="#aC"/><use transform="matrix(0.03703703703703704,0,0,0.03703703703703704,32.22222222222223,0)" xlink:href="#aI"/><use transform="matrix(0.03703703703703704,0,0,0.03703703703703704,38.111111111111114,0)" xlink:href="#ay"/><use transform="matrix(0.03703703703703704,0,0,0.03703703703703704,41.814814814814824,0)" xlink:href="#au"/><use transform="matrix(0.03703703703703704,0,0,0.03703703703703704,49.22222222222223,0)" xlink:href="#aJ"/></g><path fill="#333" d="M75-13V0H4v-13l17-5 84-220h51l83 220 18 5V0H152v-13l28-5-23-61H67L45-18zm38-189L74-98h76" id="aK"/><path fill="#333" d="M109-18c15 0 31-2 42-6v14c-11 9-31 13-51 13-59 0-86-28-88-86-3-75 66-101 135-80v48h-13c-3-20-7-40-34-37-51 7-55 138 9 134" id="aL"/><g id="r"><use transform="matrix(0.03703703703703704,0,0,0.03703703703703704,0,0)" xlink:href="#at"/><use transform="matrix(0.03703703703703704,0,0,0.03703703703703704,5.185185185185186,0)" xlink:href="#aK"/><use transform="matrix(0.03703703703703704,0,0,0.03703703703703704,14.777777777777777,0)" xlink:href="#aL"/><use transform="matrix(0.03703703703703704,0,0,0.03703703703703704,20.666666666666668,0)" xlink:href="#aL"/><use transform="matrix(0.03703703703703704,0,0,0.03703703703703704,26.55555555555556,0)" xlink:href="#aC"/><use transform="matrix(0.03703703703703704,0,0,0.03703703703703704,32.44444444444444,0)" xlink:href="#aH"/><use transform="matrix(0.03703703703703704,0,0,0.03703703703703704,37.629629629629626,0)" xlink:href="#aH"/><use transform="matrix(0.03703703703703704,0,0,0.03703703703703704,42.81481481481481,0)" xlink:href="#aB"/><use transform="matrix(0.03703703703703704,0,0,0.03703703703703704,50.222222222222214,0)" xlink:href="#aA"/><use transform="matrix(0.03703703703703704,0,0,0.03703703703703704,54.62962962962962,0)" xlink:href="#aw"/><use transform="matrix(0.03703703703703704,0,0,0.03703703703703704,61.29629629629629,0)" xlink:href="#aA"/><use transform="matrix(0.03703703703703704,0,0,0.03703703703703704,65.7037037037037,0)" xlink:href="#aC"/></g><path fill="#333" d="M90-170c54-1 76 32 76 87 1 56-23 87-77 87-53 0-75-32-75-87s23-86 76-87zM89-14c28-2 26-38 26-69s3-69-26-69c-27 0-24 39-24 69s-3 66 24 69" id="aM"/><path fill="#333" d="M73-51c-3 31 27 38 51 25v-123l-16-5v-11h66v149l17 4V0h-65l-2-14C94 9 22 18 22-44v-105l-17-5v-11h68v114" id="aN"/><g id="s"><use transform="matrix(0.03703703703703704,0,0,0.03703703703703704,0,0)" xlink:href="#aI"/><use transform="matrix(0.03703703703703704,0,0,0.03703703703703704,5.62962962962963,0)" xlink:href="#aM"/><use transform="matrix(0.03703703703703704,0,0,0.03703703703703704,12.296296296296298,0)" xlink:href="#aN"/><use transform="matrix(0.03703703703703704,0,0,0.03703703703703704,19.703703703703706,0)" xlink:href="#aA"/><use transform="matrix(0.03703703703703704,0,0,0.03703703703703704,24.111111111111114,0)" xlink:href="#aC"/></g><g id="t"><use transform="matrix(0.03703703703703704,0,0,0.03703703703703704,0,0)" xlink:href="#au"/><use transform="matrix(0.03703703703703704,0,0,0.03703703703703704,7.407407407407408,0)" xlink:href="#aM"/><use transform="matrix(0.03703703703703704,0,0,0.03703703703703704,14.074074074074076,0)" xlink:href="#aA"/></g><path fill="#333" d="M107-230c-31-13-29 30-29 65h34v18H78v131l27 4V0H10v-12l18-4v-131H3v-12l25-7c-8-66 31-98 95-84v39h-11" id="aO"/><g id="u"><use transform="matrix(0.03703703703703704,0,0,0.03703703703703704,0,0)" xlink:href="#aO"/><use transform="matrix(0.03703703703703704,0,0,0.03703703703703704,4.407407407407408,0)" xlink:href="#aM"/><use transform="matrix(0.03703703703703704,0,0,0.03703703703703704,11.074074074074076,0)" xlink:href="#aN"/><use transform="matrix(0.03703703703703704,0,0,0.03703703703703704,18.481481481481485,0)" xlink:href="#au"/><use transform="matrix(0.03703703703703704,0,0,0.03703703703703704,25.888888888888893,0)" xlink:href="#aA"/></g><path fill="#333" d="M81 5L15-149c-7-2-13-5-11-16h84v11l-20 5 39 91 35-91-19-5v-11h53c2 11-4 13-11 15C134-81 111-5 75 58 65 77 34 83 8 74V32h11c0 24 29 35 43 12 7-11 13-25 19-39" id="aP"/><g id="v"><use transform="matrix(0.03703703703703704,0,0,0.03703703703703704,0,0)" xlink:href="#aF"/><use transform="matrix(0.03703703703703704,0,0,0.03703703703703704,7.407407407407408,0)" xlink:href="#aI"/><use transform="matrix(0.03703703703703704,0,0,0.03703703703703704,13.037037037037038,0)" xlink:href="#aM"/><use transform="matrix(0.03703703703703704,0,0,0.03703703703703704,19.703703703703706,0)" xlink:href="#aF"/><use transform="matrix(0.03703703703703704,0,0,0.03703703703703704,27.111111111111114,0)" xlink:href="#aC"/><use transform="matrix(0.03703703703703704,0,0,0.03703703703703704,33,0)" xlink:href="#aI"/><use transform="matrix(0.03703703703703704,0,0,0.03703703703703704,38.888888888888886,0)" xlink:href="#aA"/><use transform="matrix(0.03703703703703704,0,0,0.03703703703703704,43.29629629629629,0)" xlink:href="#aP"/></g><g id="w"><use transform="matrix(0.03703703703703704,0,0,0.03703703703703704,0,0)" xlink:href="#aC"/><use transform="matrix(0.03703703703703704,0,0,0.03703703703703704,5.888888888888889,0)" xlink:href="#aI"/><use transform="matrix(0.03703703703703704,0,0,0.03703703703703704,11.777777777777779,0)" xlink:href="#aI"/><use transform="matrix(0.03703703703703704,0,0,0.03703703703703704,17.40740740740741,0)" xlink:href="#aM"/><use transform="matrix(0.03703703703703704,0,0,0.03703703703703704,24.074074074074076,0)" xlink:href="#aI"/></g><g id="x"><use transform="matrix(0.03703703703703704,0,0,0.03703703703703704,0,0)" xlink:href="#au"/><use transform="matrix(0.03703703703703704,0,0,0.03703703703703704,7.407407407407408,0)" xlink:href="#aC"/><use transform="matrix(0.03703703703703704,0,0,0.03703703703703704,13.296296296296298,0)" xlink:href="#aC"/><use transform="matrix(0.03703703703703704,0,0,0.03703703703703704,19.185185185185187,0)" xlink:href="#az"/></g><g id="y"><use transform="matrix(0.03703703703703704,0,0,0.03703703703703704,0,0)" xlink:href="#ax"/><use transform="matrix(0.03703703703703704,0,0,0.03703703703703704,3.703703703703704,0)" xlink:href="#aM"/><use transform="matrix(0.03703703703703704,0,0,0.03703703703703704,10.370370370370372,0)" xlink:href="#aJ"/><use transform="matrix(0.03703703703703704,0,0,0.03703703703703704,17.037037037037038,0)" xlink:href="#ay"/><use transform="matrix(0.03703703703703704,0,0,0.03703703703703704,20.74074074074074,0)" xlink:href="#au"/></g><path fill="#333" d="M81-9v9H4v-9l26-5 81-224h33l83 224 30 5v9h-99v-9l31-5-23-68H73L49-14zm38-203L78-98h82" id="aQ"/><path fill="#333" d="M164-154L98 4H85L17-153c-7-3-20 0-17-12h77v8l-26 4L99-38l46-115-26-4v-8h61v8" id="aR"/><g id="z"><use transform="matrix(0.049382716049382706,0,0,0.049382716049382706,0,0)" xlink:href="#aQ"/><use transform="matrix(0.049382716049382706,0,0,0.049382716049382706,12.790123456790122,0)" xlink:href="#Z"/><use transform="matrix(0.049382716049382706,0,0,0.049382716049382706,17.728395061728392,0)" xlink:href="#V"/><use transform="matrix(0.049382716049382706,0,0,0.049382716049382706,22.666666666666664,0)" xlink:href="#Y"/><use transform="matrix(0.049382716049382706,0,0,0.049382716049382706,30.51851851851852,0)" xlink:href="#af"/><use transform="matrix(0.049382716049382706,0,0,0.049382716049382706,36.395061728395056,0)" xlink:href="#aj"/><use transform="matrix(0.049382716049382706,0,0,0.049382716049382706,45.28395061728394,0)" xlink:href="#S"/><use transform="matrix(0.049382716049382706,0,0,0.049382716049382706,53.13580246913579,0)" xlink:href="#V"/><use transform="matrix(0.049382716049382706,0,0,0.049382716049382706,58.07407407407406,0)" xlink:href="#ai"/><use transform="matrix(0.049382716049382706,0,0,0.049382716049382706,63.012345679012334,0)" xlink:href="#aR"/><use transform="matrix(0.049382716049382706,0,0,0.049382716049382706,71.90123456790123,0)" xlink:href="#Y"/></g><path fill="#333" d="M27 48v-298h80v8l-52 8V33l52 7v8H27" id="aS"/><path fill="#333" d="M13 48v-8l52-7v-267l-52-8v-8h80V48H13" id="aT"/><g id="A"><use transform="matrix(0.049382716049382706,0,0,0.049382716049382706,0,0)" xlink:href="#aS"/><use transform="matrix(0.049382716049382706,0,0,0.049382716049382706,5.876543209876542,0)" xlink:href="#ak"/><use transform="matrix(0.049382716049382706,0,0,0.049382716049382706,14.765432098765428,0)" xlink:href="#al"/><use transform="matrix(0.049382716049382706,0,0,0.049382716049382706,23.654320987654316,0)" xlink:href="#ak"/><use transform="matrix(0.049382716049382706,0,0,0.049382716049382706,32.5432098765432,0)" xlink:href="#aT"/></g><g id="B"><use transform="matrix(0.049382716049382706,0,0,0.049382716049382706,0,0)" xlink:href="#aS"/><use transform="matrix(0.049382716049382706,0,0,0.049382716049382706,5.876543209876542,0)" xlink:href="#Y"/><use transform="matrix(0.049382716049382706,0,0,0.049382716049382706,13.728395061728392,0)" xlink:href="#af"/><use transform="matrix(0.049382716049382706,0,0,0.049382716049382706,19.604938271604933,0)" xlink:href="#af"/><use transform="matrix(0.049382716049382706,0,0,0.049382716049382706,25.481481481481477,0)" xlink:href="#ab"/><use transform="matrix(0.049382716049382706,0,0,0.049382716049382706,34.37037037037036,0)" xlink:href="#af"/><use transform="matrix(0.049382716049382706,0,0,0.049382716049382706,40.246913580246904,0)" xlink:href="#aT"/></g><g id="C"><use transform="matrix(0.049382716049382706,0,0,0.049382716049382706,0,0)" xlink:href="#aS"/><use transform="matrix(0.049382716049382706,0,0,0.049382716049382706,5.876543209876542,0)" xlink:href="#Z"/><use transform="matrix(0.049382716049382706,0,0,0.049382716049382706,10.814814814814813,0)" xlink:href="#ab"/><use transform="matrix(0.049382716049382706,0,0,0.049382716049382706,19.703703703703702,0)" xlink:href="#ao"/><use transform="matrix(0.049382716049382706,0,0,0.049382716049382706,28.592592592592588,0)" xlink:href="#ai"/><use transform="matrix(0.049382716049382706,0,0,0.049382716049382706,33.53086419753086,0)" xlink:href="#aj"/><use transform="matrix(0.049382716049382706,0,0,0.049382716049382706,42.419753086419746,0)" xlink:href="#aT"/></g><path fill="#333" d="M53-14c58 12 82-15 82-73 0-52-35-77-82-58v131zM89 4C64 4 42-2 24-9v-229l-24-4v-8h53l-1 94c48-33 114-4 114 69 0 57-23 91-77 91" id="aU"/><g id="D"><use transform="matrix(0.049382716049382706,0,0,0.049382716049382706,0,0)" xlink:href="#aS"/><use transform="matrix(0.049382716049382706,0,0,0.049382716049382706,5.876543209876542,0)" xlink:href="#aU"/><use transform="matrix(0.049382716049382706,0,0,0.049382716049382706,14.765432098765428,0)" xlink:href="#Z"/><use transform="matrix(0.049382716049382706,0,0,0.049382716049382706,19.703703703703702,0)" xlink:href="#S"/><use transform="matrix(0.049382716049382706,0,0,0.049382716049382706,27.555555555555557,0)" xlink:href="#aj"/><use transform="matrix(0.049382716049382706,0,0,0.049382716049382706,36.44444444444444,0)" xlink:href="#aq"/><use transform="matrix(0.049382716049382706,0,0,0.049382716049382706,45.33333333333333,0)" xlink:href="#aT"/></g><path fill="#333" d="M-3 46V28h186v18H-3" id="aV"/><g id="E"><use transform="matrix(0.049382716049382706,0,0,0.049382716049382706,0,0)" xlink:href="#aS"/><use transform="matrix(0.049382716049382706,0,0,0.049382716049382706,5.876543209876542,0)" xlink:href="#T"/><use transform="matrix(0.049382716049382706,0,0,0.049382716049382706,14.765432098765428,0)" xlink:href="#af"/><use transform="matrix(0.049382716049382706,0,0,0.049382716049382706,20.64197530864197,0)" xlink:href="#ab"/><use transform="matrix(0.049382716049382706,0,0,0.049382716049382706,29.530864197530857,0)" xlink:href="#aV"/><use transform="matrix(0.049382716049382706,0,0,0.049382716049382706,38.419753086419746,0)" xlink:href="#Z"/><use transform="matrix(0.049382716049382706,0,0,0.049382716049382706,43.35802469135802,0)" xlink:href="#S"/><use transform="matrix(0.049382716049382706,0,0,0.049382716049382706,51.209876543209866,0)" xlink:href="#aa"/><use transform="matrix(0.049382716049382706,0,0,0.049382716049382706,60.09876543209875,0)" xlink:href="#ab"/><use transform="matrix(0.049382716049382706,0,0,0.049382716049382706,68.98765432098764,0)" xlink:href="#ac"/><use transform="matrix(0.049382716049382706,0,0,0.049382716049382706,77.87654320987653,0)" xlink:href="#V"/><use transform="matrix(0.049382716049382706,0,0,0.049382716049382706,82.8148148148148,0)" xlink:href="#aT"/></g><path fill="#333" d="M115-236h45l-14 85h-18zm-75 0h45l-13 85H53" id="aW"/><path fill="#333" d="M74-24C74-7 62 5 45 5S16-7 16-24s12-29 29-29 29 12 29 29" id="aX"/><g id="F"><use transform="matrix(0.03703703703703704,0,0,0.03703703703703704,0,0)" xlink:href="#aW"/><use transform="matrix(0.03703703703703704,0,0,0.03703703703703704,7.370370370370371,0)" xlink:href="#aI"/><use transform="matrix(0.03703703703703704,0,0,0.03703703703703704,13,0)" xlink:href="#aM"/><use transform="matrix(0.03703703703703704,0,0,0.03703703703703704,19.666666666666668,0)" xlink:href="#aN"/><use transform="matrix(0.03703703703703704,0,0,0.03703703703703704,27.074074074074076,0)" xlink:href="#aA"/><use transform="matrix(0.03703703703703704,0,0,0.03703703703703704,31.481481481481485,0)" xlink:href="#aC"/><use transform="matrix(0.03703703703703704,0,0,0.03703703703703704,37.370370370370374,0)" xlink:href="#aX"/><use transform="matrix(0.03703703703703704,0,0,0.03703703703703704,40.70370370370371,0)" xlink:href="#ax"/><use transform="matrix(0.03703703703703704,0,0,0.03703703703703704,44.40740740740741,0)" xlink:href="#aw"/><use transform="matrix(0.03703703703703704,0,0,0.03703703703703704,51.07407407407407,0)" xlink:href="#aP"/><use transform="matrix(0.03703703703703704,0,0,0.03703703703703704,57.74074074074075,0)" xlink:href="#aM"/><use transform="matrix(0.03703703703703704,0,0,0.03703703703703704,64.40740740740742,0)" xlink:href="#aN"/><use transform="matrix(0.03703703703703704,0,0,0.03703703703703704,71.81481481481482,0)" xlink:href="#aA"/></g><path fill="#333" d="M185-96v25H18v-25h167zm0-72v25H18v-25h167" id="aY"/><g id="G"><use transform="matrix(0.03703703703703704,0,0,0.03703703703703704,0,0)" xlink:href="#aY"/><use transform="matrix(0.03703703703703704,0,0,0.03703703703703704,7.5925925925925934,0)" xlink:href="#aY"/><use transform="matrix(0.03703703703703704,0,0,0.03703703703703704,15.185185185185187,0)" xlink:href="#aY"/></g><path fill="#333" d="M27-236h46l-14 85H41" id="aZ"/><path fill="#333" d="M92-134c39 3 62-4 62-44 0-37-25-40-62-38v82zm0 115c49 5 80-2 80-50 0-44-34-49-80-46v96zm138-50C230 26 101-4 6 0v-13l30-5v-200l-30-5v-13c79 7 206-26 206 54 0 33-22 49-49 56 39 3 67 18 67 57" id="ba"/><path fill="#333" d="M203-218l-32-5v-13h84v13l-30 5V0h-21L59-189v171l32 5V0H7v-13l30-5v-200l-30-5v-13h81L203-85v-133" id="bb"/><path fill="#333" d="M258-236v13l-29 5-77 68L255-18l22 5V0h-77l-88-114-20 18v78l34 5V0H6v-13l30-5v-200l-30-5v-13h116v13l-30 5v96l107-96-21-5v-13h80" id="bc"/><g id="H"><use transform="matrix(0.03703703703703704,0,0,0.03703703703703704,0,0)" xlink:href="#aZ"/><use transform="matrix(0.03703703703703704,0,0,0.03703703703703704,3.703703703703704,0)" xlink:href="#ba"/><use transform="matrix(0.03703703703703704,0,0,0.03703703703703704,12.592592592592593,0)" xlink:href="#aE"/><use transform="matrix(0.03703703703703704,0,0,0.03703703703703704,21.48148148148148,0)" xlink:href="#aK"/><use transform="matrix(0.03703703703703704,0,0,0.03703703703703704,31.07407407407408,0)" xlink:href="#bb"/><use transform="matrix(0.03703703703703704,0,0,0.03703703703703704,40.66666666666667,0)" xlink:href="#bc"/><use transform="matrix(0.03703703703703704,0,0,0.03703703703703704,51.037037037037045,0)" xlink:href="#aZ"/><use transform="matrix(0.03703703703703704,0,0,0.03703703703703704,54.74074074074075,0)" xlink:href="#aW"/></g><path fill="#333" d="M92-112c43 4 61-13 61-54s-18-54-61-50v104zm118-54c0 63-50 78-118 74v74l39 5V0H8v-13l28-5v-200l-30-5v-13c88 3 205-20 204 70" id="bd"/><path fill="#333" d="M222-170c0 37-18 56-47 65l63 87 25 5V0h-76l-66-100H92v82l30 5V0H8v-13l28-5v-200l-30-5v-13c89 5 214-24 216 66zM92-119c45 2 75-3 75-50s-30-49-75-47v97" id="be"/><path fill="#333" d="M140-221c-55 0-64 47-64 103S8-14 140-14c56 0 64-48 64-104s-9-103-64-103zm0 225C61 4 18-36 18-118c0-81 41-120 122-120 80 0 122 39 122 120C262-36 219 4 140 4" id="bf"/><path fill="#333" d="M-3 50V25h186v25H-3" id="bg"/><path fill="#333" d="M160-93v75l38 5V0H67v-13l38-5v-74L33-218l-27-5v-13h122v13l-32 5 54 98 52-98-29-5v-13h80v13l-25 5" id="bh"/><path fill="#333" d="M54 0v-13l38-5v-199l-66 3-4 44H6v-66h229v66h-17l-4-44c-17-2-44-3-67-3v199l38 5V0H54" id="bi"/><g id="I"><use transform="matrix(0.03703703703703704,0,0,0.03703703703703704,0,0)" xlink:href="#aZ"/><use transform="matrix(0.03703703703703704,0,0,0.03703703703703704,3.703703703703704,0)" xlink:href="#bd"/><use transform="matrix(0.03703703703703704,0,0,0.03703703703703704,11.814814814814817,0)" xlink:href="#be"/><use transform="matrix(0.03703703703703704,0,0,0.03703703703703704,21.407407407407412,0)" xlink:href="#bf"/><use transform="matrix(0.03703703703703704,0,0,0.03703703703703704,31.777777777777786,0)" xlink:href="#bg"/><use transform="matrix(0.03703703703703704,0,0,0.03703703703703704,38.44444444444446,0)" xlink:href="#aE"/><use transform="matrix(0.03703703703703704,0,0,0.03703703703703704,47.33333333333334,0)" xlink:href="#aK"/><use transform="matrix(0.03703703703703704,0,0,0.03703703703703704,55.70370370370372,0)" xlink:href="#bh"/><use transform="matrix(0.03703703703703704,0,0,0.03703703703703704,65.2962962962963,0)" xlink:href="#bf"/><use transform="matrix(0.03703703703703704,0,0,0.03703703703703704,75.66666666666667,0)" xlink:href="#aG"/><use transform="matrix(0.03703703703703704,0,0,0.03703703703703704,85.25925925925927,0)" xlink:href="#bi"/><use transform="matrix(0.03703703703703704,0,0,0.03703703703703704,94.14814814814817,0)" xlink:href="#aZ"/><use transform="matrix(0.03703703703703704,0,0,0.03703703703703704,97.85185185185186,0)" xlink:href="#aW"/></g><g id="J"><use transform="matrix(0.03703703703703704,0,0,0.03703703703703704,0,0)" xlink:href="#aI"/><use transform="matrix(0.03703703703703704,0,0,0.03703703703703704,5.62962962962963,0)" xlink:href="#aC"/><use transform="matrix(0.03703703703703704,0,0,0.03703703703703704,11.51851851851852,0)" xlink:href="#au"/><use transform="matrix(0.03703703703703704,0,0,0.03703703703703704,18.925925925925927,0)" xlink:href="#az"/><use transform="matrix(0.03703703703703704,0,0,0.03703703703703704,26.333333333333336,0)" xlink:href="#aC"/><use transform="matrix(0.03703703703703704,0,0,0.03703703703703704,32.22222222222223,0)" xlink:href="#aI"/></g><g id="K"><use transform="matrix(0.03703703703703704,0,0,0.03703703703703704,0,0)" xlink:href="#aF"/><use transform="matrix(0.03703703703703704,0,0,0.03703703703703704,7.407407407407408,0)" xlink:href="#aw"/><use transform="matrix(0.03703703703703704,0,0,0.03703703703703704,14.074074074074076,0)" xlink:href="#aJ"/><use transform="matrix(0.03703703703703704,0,0,0.03703703703703704,20.740740740740744,0)" xlink:href="#aC"/></g><g id="L"><use transform="matrix(0.03703703703703704,0,0,0.03703703703703704,0,0)" xlink:href="#ay"/><use transform="matrix(0.03703703703703704,0,0,0.03703703703703704,3.703703703703704,0)" xlink:href="#au"/></g><path fill="#333" d="M77-79l64-71-17-4v-11h63v11c-32 3-40 30-59 46l57 92 15 4V0h-80c-2-11 3-15 10-16L97-74 77-60v44l16 4V0H10v-12l16-4v-218l-17-4v-12h68v171" id="bj"/><g id="M"><use transform="matrix(0.03703703703703704,0,0,0.03703703703703704,0,0)" xlink:href="#ba"/><use transform="matrix(0.03703703703703704,0,0,0.03703703703703704,8.88888888888889,0)" xlink:href="#ax"/><use transform="matrix(0.03703703703703704,0,0,0.03703703703703704,12.592592592592593,0)" xlink:href="#aw"/><use transform="matrix(0.03703703703703704,0,0,0.03703703703703704,19.259259259259256,0)" xlink:href="#au"/><use transform="matrix(0.03703703703703704,0,0,0.03703703703703704,26.666666666666664,0)" xlink:href="#bj"/><use transform="matrix(0.03703703703703704,0,0,0.03703703703703704,34.074074074074076,0)" xlink:href="#aE"/><use transform="matrix(0.03703703703703704,0,0,0.03703703703703704,42.96296296296296,0)" xlink:href="#aw"/><use transform="matrix(0.03703703703703704,0,0,0.03703703703703704,49.62962962962963,0)" xlink:href="#aP"/><use transform="matrix(0.03703703703703704,0,0,0.03703703703703704,56.296296296296305,0)" xlink:href="#aM"/><use transform="matrix(0.03703703703703704,0,0,0.03703703703703704,62.96296296296298,0)" xlink:href="#aN"/><use transform="matrix(0.03703703703703704,0,0,0.03703703703703704,70.37037037037038,0)" xlink:href="#aA"/></g><g id="N"><use transform="matrix(0.03703703703703704,0,0,0.03703703703703704,0,0)" xlink:href="#au"/><use transform="matrix(0.03703703703703704,0,0,0.03703703703703704,7.407407407407408,0)" xlink:href="#aM"/></g><path fill="#333" d="M126-114c3-31-27-37-49-25v123l15 4V0H10v-12l16-4v-133l-16-5v-11h64l2 14c24-16 81-33 96 3 30-24 105-39 105 27v105l17 4V0h-82v-12l14-4v-98c4-33-27-37-51-24 5 35 0 82 2 122l17 4V0h-83v-12l15-4v-98" id="bk"/><g id="O"><use transform="matrix(0.03703703703703704,0,0,0.03703703703703704,0,0)" xlink:href="#aF"/><use transform="matrix(0.03703703703703704,0,0,0.03703703703703704,7.407407407407408,0)" xlink:href="#aC"/><use transform="matrix(0.03703703703703704,0,0,0.03703703703703704,13.296296296296298,0)" xlink:href="#aI"/><use transform="matrix(0.03703703703703704,0,0,0.03703703703703704,19.185185185185187,0)" xlink:href="#bk"/><use transform="matrix(0.03703703703703704,0,0,0.03703703703703704,30.259259259259263,0)" xlink:href="#ay"/><use transform="matrix(0.03703703703703704,0,0,0.03703703703703704,33.96296296296297,0)" xlink:href="#aH"/><use transform="matrix(0.03703703703703704,0,0,0.03703703703703704,39.14814814814815,0)" xlink:href="#aH"/><use transform="matrix(0.03703703703703704,0,0,0.03703703703703704,44.333333333333336,0)" xlink:href="#ay"/><use transform="matrix(0.03703703703703704,0,0,0.03703703703703704,48.03703703703704,0)" xlink:href="#aM"/><use transform="matrix(0.03703703703703704,0,0,0.03703703703703704,54.70370370370371,0)" xlink:href="#au"/></g><g id="P"><use transform="matrix(0.049382716049382706,0,0,0.049382716049382706,0,0)" xlink:href="#aS"/><use transform="matrix(0.049382716049382706,0,0,0.049382716049382706,5.876543209876542,0)" xlink:href="#ak"/><use transform="matrix(0.049382716049382706,0,0,0.049382716049382706,14.765432098765428,0)" xlink:href="#al"/><use transform="matrix(0.049382716049382706,0,0,0.049382716049382706,23.654320987654316,0)" xlink:href="#as"/><use transform="matrix(0.049382716049382706,0,0,0.049382716049382706,32.5432098765432,0)" xlink:href="#aT"/></g><g id="Q"><use transform="matrix(0.049382716049382706,0,0,0.049382716049382706,0,0)" xlink:href="#aS"/><use transform="matrix(0.049382716049382706,0,0,0.049382716049382706,5.876543209876542,0)" xlink:href="#af"/><use transform="matrix(0.049382716049382706,0,0,0.049382716049382706,11.753086419753084,0)" xlink:href="#Y"/><use transform="matrix(0.049382716049382706,0,0,0.049382716049382706,19.604938271604933,0)" xlink:href="#W"/><use transform="matrix(0.049382716049382706,0,0,0.049382716049382706,26.518518518518512,0)" xlink:href="#ac"/><use transform="matrix(0.049382716049382706,0,0,0.049382716049382706,35.4074074074074,0)" xlink:href="#Z"/><use transform="matrix(0.049382716049382706,0,0,0.049382716049382706,40.34567901234567,0)" xlink:href="#V"/><use transform="matrix(0.049382716049382706,0,0,0.049382716049382706,45.28395061728394,0)" xlink:href="#aT"/></g><g id="R"><use transform="matrix(0.03703703703703704,0,0,0.03703703703703704,0,0)" xlink:href="#bd"/><use transform="matrix(0.03703703703703704,0,0,0.03703703703703704,8.111111111111112,0)" xlink:href="#aI"/><use transform="matrix(0.03703703703703704,0,0,0.03703703703703704,13.740740740740742,0)" xlink:href="#aM"/><use transform="matrix(0.03703703703703704,0,0,0.03703703703703704,20.40740740740741,0)" xlink:href="#aE"/><use transform="matrix(0.03703703703703704,0,0,0.03703703703703704,29.2962962962963,0)" xlink:href="#aw"/><use transform="matrix(0.03703703703703704,0,0,0.03703703703703704,35.96296296296297,0)" xlink:href="#aP"/><use transform="matrix(0.03703703703703704,0,0,0.03703703703703704,42.62962962962963,0)" xlink:href="#aM"/><use transform="matrix(0.03703703703703704,0,0,0.03703703703703704,49.296296296296305,0)" xlink:href="#aN"/><use transform="matrix(0.03703703703703704,0,0,0.03703703703703704,56.70370370370371,0)" xlink:href="#aA"/></g></defs></g></svg>